# xmcd
#
# Track frame offsets: 
#        150
#        24880
#        47663
#        68817
#        92217
#        115131
#        135854
#        154401
#        171302
#        192080
#        211616
#        237841
#        252908
#        268406
#        285409
#        309483
#        327624
#        338370
#
# Disc length: 4835 seconds
#
# Revision: 4
# Processed by: cddbd v1.5.2PL0 Copyright (c) Steve Scherf et al.
# Submitted via: ExactAudioCopy v0.99pb4
#
DISCID=f812e112
DTITLE=Adriano Celentano - Persempre (bonus)
DYEAR=2002
DGENRE=Pop
TTITLE0=I Passi Che Facciamo
TTITLE1=Confessa
TTITLE2=Mi Fa Male
TTITLE3=Piu' Di Un Sogno
TTITLE4=Per Sempre
TTITLE5=Una Luce Intermittente
TTITLE6=Respiri Di Vita
TTITLE7=Dimenticare E Ricominciare
TTITLE8=Vite
TTITLE9=Pensieri Nascosti
TTITLE10=Per Vivere
TTITLE11=Radio Chick
TTITLE12=L'arcobaleno
TTITLE13=Il Tempo Se Ne Va
TTITLE14=Quel Punto
TTITLE15=Soli
TTITLE16=I Want To Know (I Parte)
TTITLE17=Ja Tebia Liudliu
EXTD=(p) and (c) Clan Celentano\nwww.clancelentano.it YEAR: 2002
EXTT0=
EXTT1=
EXTT2=
EXTT3=
EXTT4=
EXTT5=
EXTT6=
EXTT7=
EXTT8=
EXTT9=
EXTT10=
EXTT11=
EXTT12=
EXTT13=
EXTT14=
EXTT15=
EXTT16=
EXTT17=
PLAYORDER=
